<svg xmlns="http://www.w3.org/2000/svg" fill="none" viewBox="0 0 288 69"><defs/><path fill="#000" d="M72.1963 53.9419h5.0815V41.9003h8.041l7.7618 12.0416h5.8075l-8.2086-12.8516c5.3607-1.7819 8.6553-6.5878 8.6553-12.0956 0-6.9118-5.249-12.8516-13.4017-12.8516H75.7677c-1.9724 0-3.5714 1.5989-3.5714 3.5714v34.2274zm13.7368-16.5235h-8.6553V20.5709h8.6553c5.0814 0 8.3202 3.8879 8.3202 8.4238 0 4.5898-3.2388 8.4237-8.3202 8.4237zm29.6769-5.0218c4.076 0 7.148 2.6999 7.148 6.9658h-14.687c.112-4.4279 3.183-6.9658 7.539-6.9658zm11.615 10.5297c.223-1.35.223-2.376.223-3.0779 0-6.2639-5.137-11.0697-11.726-11.0697-7.986 0-12.509 5.5078-12.509 12.9056 0 7.0738 4.133 12.8516 12.676 12.8516 6.366 0 10.498-3.6719 11.336-7.8297h-4.914c-.782 2.1059-2.625 3.8878-6.422 3.8878-5.584 0-7.65-3.5099-7.873-7.6677h19.209zm26.212-9.2878v-4.2118h4.802v24.5152h-4.802v-4.2658c-1.62 2.9699-5.194 4.8598-8.879 4.8598-7.762 0-13.011-5.9398-13.011-12.8516 0-6.9658 5.249-12.9056 13.011-12.9056 3.685 0 7.259 1.8899 8.879 4.8598zm-17.088 8.0458c0 4.6979 3.351 8.6397 8.488 8.6397 5.249 0 8.6-3.9418 8.6-8.6397 0-4.6978-3.351-8.6937-8.6-8.6937-5.137 0-8.488 3.9959-8.488 8.6937zm40.412-1.4039c-.653-.2029-1.266-.3849-1.837-.5545-3.533-1.0495-5.478-1.6271-5.478-3.7654 0-2.214 2.01-3.4019 4.69-3.4019 3.351 0 5.137 1.6199 5.137 4.4818h4.691c0-4.9138-4.244-8.2617-9.772-8.2617-5.249 0-9.437 2.4839-9.437 7.0738 0 4.4278 3.015 5.5618 6.868 6.7498.954.3141 1.835.5788 2.636.8197 3.471 1.043 5.461 1.641 5.461 3.8781 0 2.43-2.01 3.5099-5.081 3.5099-3.407 0-5.975-1.4039-5.975-5.1298h-4.747c0 5.9398 4.914 8.8557 10.498 8.8557 5.696 0 9.94-2.4299 9.94-7.3438 0-4.5725-3.627-5.6898-7.417-6.857l-.177-.0547zm38.259 1.4039c0 6.9118-5.249 12.8516-13.401 12.8516-8.041 0-13.29-5.9398-13.29-12.8516 0-6.9658 5.249-12.9056 13.29-12.9056 8.152 0 13.401 5.9398 13.401 12.9056zm-21.889 0c0 4.6979 3.35 8.6397 8.488 8.6397 5.249 0 8.599-3.9418 8.599-8.6397 0-4.6978-3.35-8.6937-8.599-8.6937-5.138 0-8.488 3.9959-8.488 8.6937zm26.903 12.2576h4.859V41.3063c0-4.3739 2.345-8.3697 7.203-8.3697 4.746 0 6.422 3.4559 6.422 7.9917v13.0136h4.858V39.4704c0-3.4559-.559-5.6159-1.955-7.4518-1.507-2.0519-4.076-3.2399-7.594-3.2399-4.3 0-7.427 1.9979-8.934 4.9678v-4.3198h-4.859v24.5152zm50.505-20.3034v-4.2118h4.802v24.5152h-4.802v-4.2658c-1.619 2.9699-5.193 4.8598-8.879 4.8598-7.762 0-13.011-5.9398-13.011-12.8516 0-6.9658 5.249-12.9056 13.011-12.9056 3.686 0 7.26 1.8899 8.879 4.8598zm-17.087 8.0458c0 4.6979 3.35 8.6397 8.488 8.6397 5.249 0 8.599-3.9418 8.599-8.6397 0-4.6978-3.35-8.6937-8.599-8.6937-5.138 0-8.488 3.9959-8.488 8.6937zm29.69 12.2576H288V18.8216c0-1.4793-1.199-2.6785-2.679-2.6785h-2.179v37.7988z"/><path stroke="#000" d="M72.1963 53.9419h5.0815V41.9003h8.041l7.7618 12.0416h5.8075l-8.2086-12.8516c5.3607-1.7819 8.6553-6.5878 8.6553-12.0956 0-6.9118-5.249-12.8516-13.4017-12.8516H75.7677c-1.9724 0-3.5714 1.5989-3.5714 3.5714v34.2274zm13.7368-16.5235h-8.6553V20.5709h8.6553c5.0814 0 8.3202 3.8879 8.3202 8.4238 0 4.5898-3.2388 8.4237-8.3202 8.4237zm29.6769-5.0218c4.076 0 7.148 2.6999 7.148 6.9658h-14.687c.112-4.4279 3.183-6.9658 7.539-6.9658zm11.615 10.5297c.223-1.35.223-2.376.223-3.0779 0-6.2639-5.137-11.0697-11.726-11.0697-7.986 0-12.509 5.5078-12.509 12.9056 0 7.0738 4.133 12.8516 12.676 12.8516 6.366 0 10.498-3.6719 11.336-7.8297h-4.914c-.782 2.1059-2.625 3.8878-6.422 3.8878-5.584 0-7.65-3.5099-7.873-7.6677h19.209zm26.212-9.2878v-4.2118h4.802v24.5152h-4.802v-4.2658c-1.62 2.9699-5.194 4.8598-8.879 4.8598-7.762 0-13.011-5.9398-13.011-12.8516 0-6.9658 5.249-12.9056 13.011-12.9056 3.685 0 7.259 1.8899 8.879 4.8598zm-17.088 8.0458c0 4.6979 3.351 8.6397 8.488 8.6397 5.249 0 8.6-3.9418 8.6-8.6397 0-4.6978-3.351-8.6937-8.6-8.6937-5.137 0-8.488 3.9959-8.488 8.6937zm40.412-1.4039c-.653-.2029-1.266-.3849-1.837-.5545-3.533-1.0495-5.478-1.6271-5.478-3.7654 0-2.214 2.01-3.4019 4.69-3.4019 3.351 0 5.137 1.6199 5.137 4.4818h4.691c0-4.9138-4.244-8.2617-9.772-8.2617-5.249 0-9.437 2.4839-9.437 7.0738 0 4.4278 3.015 5.5618 6.868 6.7498.954.3141 1.835.5788 2.636.8197 3.471 1.043 5.461 1.641 5.461 3.8781 0 2.43-2.01 3.5099-5.081 3.5099-3.407 0-5.975-1.4039-5.975-5.1298h-4.747c0 5.9398 4.914 8.8557 10.498 8.8557 5.696 0 9.94-2.4299 9.94-7.3438 0-4.5725-3.627-5.6898-7.417-6.857l-.177-.0547zm38.259 1.4039c0 6.9118-5.249 12.8516-13.401 12.8516-8.041 0-13.29-5.9398-13.29-12.8516 0-6.9658 5.249-12.9056 13.29-12.9056 8.152 0 13.401 5.9398 13.401 12.9056zm-21.889 0c0 4.6979 3.35 8.6397 8.488 8.6397 5.249 0 8.599-3.9418 8.599-8.6397 0-4.6978-3.35-8.6937-8.599-8.6937-5.138 0-8.488 3.9959-8.488 8.6937zm26.903 12.2576h4.859V41.3063c0-4.3739 2.345-8.3697 7.203-8.3697 4.746 0 6.422 3.4559 6.422 7.9917v13.0136h4.858V39.4704c0-3.4559-.559-5.6159-1.955-7.4518-1.507-2.0519-4.076-3.2399-7.594-3.2399-4.3 0-7.427 1.9979-8.934 4.9678v-4.3198h-4.859v24.5152zm50.505-20.3034v-4.2118h4.802v24.5152h-4.802v-4.2658c-1.619 2.9699-5.193 4.8598-8.879 4.8598-7.762 0-13.011-5.9398-13.011-12.8516 0-6.9658 5.249-12.9056 13.011-12.9056 3.686 0 7.26 1.8899 8.879 4.8598zm-17.087 8.0458c0 4.6979 3.35 8.6397 8.488 8.6397 5.249 0 8.599-3.9418 8.599-8.6397 0-4.6978-3.35-8.6937-8.599-8.6937-5.138 0-8.488 3.9959-8.488 8.6937zm29.69 12.2576H288V18.8216c0-1.4793-1.199-2.6785-2.679-2.6785h-2.179v37.7988z"/><path stroke="#BAA7FC" stroke-miterlimit="10" d="M42.1997 68.0292c-4.1189 0-9.3644-.0037-14.5952-.0062-5.1889-.0037-10.363-.0062-14.4105-.0062l-1.4948.0124C5.7998 68.0292 1 63.2294 1 57.33V11.6334C1 5.734 5.7998.934204 11.6992.934204h12.8553C39.6877.934204 52 13.2465 52 28.3797c0 6.5163-2.3482 12.8319-6.5261 17.761 1.7411 2.3236 3.4514 4.7456 4.7111 6.5459 2.0908 3.0057 2.3408 6.8684.6575 10.0921-1.6771 3.2384-4.9882 5.2505-8.6428 5.2505z"/><path stroke="#6C3EF8" stroke-miterlimit="10" d="M42.1998 64.5386c-4.1176 0-9.3632-.0037-14.5927-.0062-5.1951-.0037-10.3766-.0061-14.4265-.0061l-1.4801.0123c-3.97478 0-7.20953-3.2335-7.20953-7.2096V11.6337c0-3.97481 3.23352-7.20957 7.20953-7.20957h12.8553c13.2087 0 23.9559 10.74597 23.9559 23.95587 0 6.7084-2.794 13.0215-7.6208 17.5197 2.1967 2.7816 4.6126 6.1826 6.4362 8.7881 1.3447 1.9332 1.5035 4.4119.4211 6.4806-1.0762 2.0797-3.2002 3.3702-5.5484 3.3702z"/><path fill="#6E40F8" d="M35.928 45.4068c5.4842-3.6726 9.1075-9.9333 9.1075-17.032 0-11.3136-9.1692-20.48283-20.4828-20.48283H11.6863c-2.05818 0-3.72194 1.66376-3.72194 3.72193V57.349c0 2.0581 1.66376 3.7219 3.72194 3.7219l1.4665-.0123c8.134 0 20.8403.0123 29.0605.0123 1.0352 0 1.9842-.5793 2.4525-1.4912.4807-.912.4067-2.0212-.1848-2.8716-2.0952-2.9948-5.9403-8.4297-8.553-11.3013z"/><circle cx="30.9258" cy="25.8004" r="19.1025" fill="url(#paint0_radial)" opacity=".3"/><ellipse cx="22.7301" cy="20.501" fill="url(#paint1_radial)" opacity=".2" rx="14.7274" ry="14.9123"/><defs><radialGradient id="paint0_radial" cx="0" cy="0" r="1" gradientTransform="rotate(90 2.5627 28.3631) scale(19.1025)" gradientUnits="userSpaceOnUse"><stop stop-color="#E4DCFE"/><stop offset="1" stop-color="#fff" stop-opacity="0"/></radialGradient><radialGradient id="paint1_radial" cx="0" cy="0" r="1" gradientTransform="matrix(0 14.9123 -14.7274 0 22.7301 20.501)" gradientUnits="userSpaceOnUse"><stop stop-color="#E4DCFE"/><stop offset="1" stop-color="#fff" stop-opacity="0"/></radialGradient></defs></svg>